<svg xmlns="http://www.w3.org/2000/svg" viewBox="0 0 1200 300" width="1200" height="300" role="img" aria-label="drust — the AI-native, self-hosted BaaS">
  <defs>
    <linearGradient id="bg" x1="0" y1="0" x2="0" y2="1">
      <stop offset="0" stop-color="#0e1319"/>
      <stop offset="1" stop-color="#0a0d11"/>
    </linearGradient>
    <radialGradient id="moon" cx="42%" cy="38%" r="70%">
      <stop offset="0" stop-color="#f8f2e7"/>
      <stop offset="1" stop-color="#e7dcc7"/>
    </radialGradient>
    <pattern id="dots" width="22" height="22" patternUnits="userSpaceOnUse">
      <circle cx="2" cy="2" r="1.1" fill="#5b6b7d" fill-opacity="0.10"/>
    </pattern>
    <linearGradient id="word" x1="0" y1="0" x2="0" y2="1">
      <stop offset="0" stop-color="#f3f6f9"/>
      <stop offset="1" stop-color="#cfd8e1"/>
    </linearGradient>
  </defs>

  <!-- card -->
  <rect x="1" y="1" width="1198" height="298" rx="22" fill="url(#bg)" stroke="#222b36" stroke-width="1.5"/>
  <rect x="1" y="1" width="1198" height="298" rx="22" fill="url(#dots)"/>

  <!-- mascot spotlight (the "moon") -->
  <circle cx="186" cy="150" r="118" fill="url(#moon)"/>
  <circle cx="186" cy="150" r="118" fill="none" stroke="#e06a3b" stroke-opacity="0.55" stroke-width="2.5"/>

  <!-- LiveChonk — the drust pixel-cat (16x16, 12px cells, open pose) -->
  <g transform="translate(90,42)" shape-rendering="crispEdges">
    <g fill="#0a0a0a">
      <!-- ears -->
      <rect x="12" y="36" width="12" height="12"/><rect x="168" y="36" width="12" height="12"/>
      <rect x="12" y="48" width="24" height="12"/><rect x="156" y="48" width="24" height="12"/>
      <rect x="12" y="60" width="36" height="12"/><rect x="144" y="60" width="36" height="12"/>
      <!-- head + body -->
      <rect x="12" y="72" width="168" height="12"/>
      <rect x="0"  y="84"  width="192" height="12"/>
      <rect x="0"  y="96"  width="192" height="12"/>
      <rect x="0"  y="108" width="192" height="12"/>
      <rect x="0"  y="120" width="192" height="12"/>
      <rect x="0"  y="132" width="192" height="12"/>
      <rect x="0"  y="144" width="192" height="12"/>
      <!-- chin -->
      <rect x="12" y="156" width="168" height="12"/>
      <rect x="24" y="168" width="144" height="12"/>
    </g>
    <!-- eyes (LiveChonk green) -->
    <g fill="#7FE87F">
      <rect x="48"  y="96" width="24" height="24"/>
      <rect x="120" y="96" width="24" height="24"/>
    </g>
    <!-- nose (LiveChonk pink) -->
    <rect x="84" y="132" width="24" height="12" fill="#FFA3C7"/>
  </g>

  <!-- wordmark -->
  <text x="372" y="158" font-family="'JetBrains Mono','SFMono-Regular',Consolas,'DejaVu Sans Mono',monospace" font-size="118" font-weight="800" letter-spacing="-2" fill="url(#word)">drust</text>
  <!-- rust-orange CLI cursor block -->
  <rect x="712" y="74" width="22" height="86" rx="3" fill="#e06a3b"/>

  <!-- tagline -->
  <text x="376" y="206" font-family="'Inter','Segoe UI',Helvetica,Arial,sans-serif" font-size="31" font-weight="600" fill="#aeb9c6">The AI-native, self-hosted BaaS</text>

  <!-- capability strip -->
  <text x="377" y="246" font-family="'JetBrains Mono','SFMono-Regular',Consolas,monospace" font-size="21" fill="#6f7d8c">REST<tspan fill="#e06a3b">  ·  </tspan>MCP<tspan fill="#e06a3b">  ·  </tspan>RLS<tspan fill="#e06a3b">  ·  </tspan>realtime<tspan fill="#e06a3b">  ·  </tspan>edge functions</text>
</svg>
